<mxfile host="app.diagrams.net" modified="2023-06-03T15:20:14.666Z" agent="Mozilla/5.0 (Windows NT 10.0; Win64; x64) AppleWebKit/537.36 (KHTML, like Gecko) Chrome/114.0.0.0 Safari/537.36" etag="wjuCiegWpS3zkz8W-hZ1" version="21.3.7" type="device">
  <diagram name="Страница 1" id="5uSce27BxtDs7q2xH7i1">
    <mxGraphModel dx="683" dy="-809" grid="0" gridSize="10" guides="1" tooltips="1" connect="1" arrows="1" fold="1" page="1" pageScale="1" pageWidth="827" pageHeight="1169" math="0" shadow="0">
      <root>
        <mxCell id="0" />
        <mxCell id="1" parent="0" />
        <mxCell id="9L_ShjBbtRiRTKGJwbd4-1" value="Інтерфейс гри" style="rounded=0;whiteSpace=wrap;html=1;" parent="1" vertex="1">
          <mxGeometry x="314" y="1330" width="100" height="50" as="geometry" />
        </mxCell>
        <mxCell id="9L_ShjBbtRiRTKGJwbd4-2" value="Player" style="shape=umlActor;verticalLabelPosition=bottom;verticalAlign=top;html=1;outlineConnect=0;" parent="1" vertex="1">
          <mxGeometry x="184" y="1320" width="30" height="60" as="geometry" />
        </mxCell>
        <mxCell id="9L_ShjBbtRiRTKGJwbd4-3" value="" style="endArrow=none;dashed=1;html=1;dashPattern=1 3;strokeWidth=2;rounded=0;" parent="1" edge="1">
          <mxGeometry width="50" height="50" relative="1" as="geometry">
            <mxPoint x="199" y="1540" as="sourcePoint" />
            <mxPoint x="198.66" y="1409" as="targetPoint" />
          </mxGeometry>
        </mxCell>
        <mxCell id="9L_ShjBbtRiRTKGJwbd4-4" value="" style="endArrow=none;dashed=1;html=1;dashPattern=1 3;strokeWidth=2;rounded=0;" parent="1" source="9L_ShjBbtRiRTKGJwbd4-7" edge="1">
          <mxGeometry width="50" height="50" relative="1" as="geometry">
            <mxPoint x="364" y="1670" as="sourcePoint" />
            <mxPoint x="364" y="1380" as="targetPoint" />
          </mxGeometry>
        </mxCell>
        <mxCell id="9L_ShjBbtRiRTKGJwbd4-5" value="" style="rounded=0;whiteSpace=wrap;html=1;rotation=90;" parent="1" vertex="1">
          <mxGeometry x="169" y="1450" width="60" height="10" as="geometry" />
        </mxCell>
        <mxCell id="9L_ShjBbtRiRTKGJwbd4-6" value="" style="endArrow=none;dashed=1;html=1;dashPattern=1 3;strokeWidth=2;rounded=0;" parent="1" target="9L_ShjBbtRiRTKGJwbd4-7" edge="1">
          <mxGeometry width="50" height="50" relative="1" as="geometry">
            <mxPoint x="364" y="1540" as="sourcePoint" />
            <mxPoint x="364" y="1380" as="targetPoint" />
          </mxGeometry>
        </mxCell>
        <mxCell id="9L_ShjBbtRiRTKGJwbd4-7" value="" style="rounded=0;whiteSpace=wrap;html=1;rotation=90;" parent="1" vertex="1">
          <mxGeometry x="334" y="1450" width="60" height="10" as="geometry" />
        </mxCell>
        <mxCell id="9L_ShjBbtRiRTKGJwbd4-8" value="" style="endArrow=classic;html=1;rounded=0;" parent="1" edge="1">
          <mxGeometry width="50" height="50" relative="1" as="geometry">
            <mxPoint x="214" y="1440" as="sourcePoint" />
            <mxPoint x="354" y="1440" as="targetPoint" />
            <Array as="points">
              <mxPoint x="324" y="1440" />
            </Array>
          </mxGeometry>
        </mxCell>
        <mxCell id="9L_ShjBbtRiRTKGJwbd4-9" value="&lt;font style=&quot;font-size: 8px;&quot;&gt;Вводить літери&lt;/font&gt;" style="edgeLabel;html=1;align=center;verticalAlign=middle;resizable=0;points=[];" parent="9L_ShjBbtRiRTKGJwbd4-8" vertex="1" connectable="0">
          <mxGeometry x="-0.16" y="-1" relative="1" as="geometry">
            <mxPoint x="8" y="-2" as="offset" />
          </mxGeometry>
        </mxCell>
        <mxCell id="JiT6uzxDNIui5tNgGvis-1" value="Перемога" style="rounded=0;whiteSpace=wrap;html=1;" vertex="1" parent="1">
          <mxGeometry x="440" y="1330" width="100" height="50" as="geometry" />
        </mxCell>
        <mxCell id="JiT6uzxDNIui5tNgGvis-2" value="" style="endArrow=none;dashed=1;html=1;dashPattern=1 3;strokeWidth=2;rounded=0;" edge="1" parent="1" source="JiT6uzxDNIui5tNgGvis-4">
          <mxGeometry width="50" height="50" relative="1" as="geometry">
            <mxPoint x="490" y="1670" as="sourcePoint" />
            <mxPoint x="490" y="1380" as="targetPoint" />
          </mxGeometry>
        </mxCell>
        <mxCell id="JiT6uzxDNIui5tNgGvis-3" value="" style="endArrow=none;dashed=1;html=1;dashPattern=1 3;strokeWidth=2;rounded=0;" edge="1" parent="1" target="JiT6uzxDNIui5tNgGvis-4">
          <mxGeometry width="50" height="50" relative="1" as="geometry">
            <mxPoint x="490" y="1540" as="sourcePoint" />
            <mxPoint x="490" y="1380" as="targetPoint" />
          </mxGeometry>
        </mxCell>
        <mxCell id="JiT6uzxDNIui5tNgGvis-4" value="" style="rounded=0;whiteSpace=wrap;html=1;rotation=90;" vertex="1" parent="1">
          <mxGeometry x="460" y="1450" width="60" height="10" as="geometry" />
        </mxCell>
        <mxCell id="JiT6uzxDNIui5tNgGvis-5" value="" style="endArrow=none;dashed=1;html=1;dashPattern=1 3;strokeWidth=2;rounded=0;entryX=0.5;entryY=1;entryDx=0;entryDy=0;exitX=0.5;exitY=0;exitDx=0;exitDy=0;" edge="1" parent="1" source="9L_ShjBbtRiRTKGJwbd4-7" target="JiT6uzxDNIui5tNgGvis-4">
          <mxGeometry width="50" height="50" relative="1" as="geometry">
            <mxPoint x="394" y="1480" as="sourcePoint" />
            <mxPoint x="444" y="1430" as="targetPoint" />
          </mxGeometry>
        </mxCell>
        <mxCell id="JiT6uzxDNIui5tNgGvis-6" value="&lt;font style=&quot;font-size: 8px;&quot;&gt;Слово вгадане&lt;/font&gt;" style="edgeLabel;html=1;align=center;verticalAlign=middle;resizable=0;points=[];" vertex="1" connectable="0" parent="JiT6uzxDNIui5tNgGvis-5">
          <mxGeometry x="-0.1232" y="1" relative="1" as="geometry">
            <mxPoint as="offset" />
          </mxGeometry>
        </mxCell>
        <mxCell id="JiT6uzxDNIui5tNgGvis-9" value="" style="endArrow=none;dashed=1;html=1;dashPattern=1 3;strokeWidth=2;rounded=0;exitX=0.75;exitY=0;exitDx=0;exitDy=0;entryX=0.75;entryY=1;entryDx=0;entryDy=0;" edge="1" parent="1" source="9L_ShjBbtRiRTKGJwbd4-5" target="9L_ShjBbtRiRTKGJwbd4-7">
          <mxGeometry width="50" height="50" relative="1" as="geometry">
            <mxPoint x="260" y="1500" as="sourcePoint" />
            <mxPoint x="310" y="1450" as="targetPoint" />
          </mxGeometry>
        </mxCell>
        <mxCell id="JiT6uzxDNIui5tNgGvis-11" value="&lt;font style=&quot;font-size: 8px;&quot;&gt;Повертає поки&amp;nbsp; буде не вгадано&lt;/font&gt;" style="edgeLabel;html=1;align=center;verticalAlign=middle;resizable=0;points=[];" vertex="1" connectable="0" parent="JiT6uzxDNIui5tNgGvis-9">
          <mxGeometry x="-0.1539" relative="1" as="geometry">
            <mxPoint x="10" as="offset" />
          </mxGeometry>
        </mxCell>
      </root>
    </mxGraphModel>
  </diagram>
</mxfile>
